HIERARCHY
ROOT hip
{
  OFFSET 0.0248809 96.4281 0.301297
  CHANNELS 6 Xposition Yposition Zposition Zrotation Xrotation Yrotation
  JOINT abdomen
  {
    OFFSET 0 7.2397 0
    CHANNELS 6 Xposition Yposition Zposition Zrotation Xrotation Yrotation
    JOINT chest
    {
      OFFSET 0 16.546 0
      CHANNELS 6 Xposition Yposition Zposition Zrotation Xrotation Yrotation
      JOINT neck
      {
        OFFSET 0 34.2149 0
        CHANNELS 6 Xposition Yposition Zposition Zrotation Xrotation Yrotation
        JOINT head
        {
          OFFSET 0 6.2923 0
          CHANNELS 6 Xposition Yposition Zposition Zrotation Xrotation Yrotation
          End Site
          {
            OFFSET 0 21.2161 0
          }
        }
      }
      JOINT lCollar
      {
        OFFSET 4.0639 26.6115 -1.1234
        CHANNELS 6 Xposition Yposition Zposition Zrotation Xrotation Yrotation
        JOINT lShldr
        {
          OFFSET 14.1772 0 0
          CHANNELS 6 Xposition Yposition Zposition Zrotation Xrotation Yrotation
          JOINT lForeArm
          {
            OFFSET 26.1234 0 0
            CHANNELS 6 Xposition Yposition Zposition Zrotation Xrotation Yrotation
            JOINT lHand
            {
              OFFSET 27.7188 0 0
              CHANNELS 6 Xposition Yposition Zposition Zrotation Xrotation Yrotation
              JOINT lThumb1
              {
                OFFSET 2.2979 -0.4685 1.8313
                CHANNELS 6 Xposition Yposition Zposition Zrotation Xrotation Yrotation
                JOINT lThumb2
                {
                  OFFSET 5.2953 0 0
                  CHANNELS 6 Xposition Yposition Zposition Zrotation Xrotation Yrotation
                  JOINT lThumb3
                  {
                    OFFSET 3.0181 0 0
                    CHANNELS 6 Xposition Yposition Zposition Zrotation Xrotation Yrotation
                    End Site
                    {
                      OFFSET 2.6294 0 0
                    }
                  }
                }
              }
              JOINT lIndex1
              {
                OFFSET 9.3793 0.2991 2.5924
                CHANNELS 6 Xposition Yposition Zposition Zrotation Xrotation Yrotation
                JOINT lIndex2
                {
                  OFFSET 4.3461 0 0
                  CHANNELS 6 Xposition Yposition Zposition Zrotation Xrotation Yrotation
                  JOINT lIndex3
                  {
                    OFFSET 2.1666 0 0
                    CHANNELS 6 Xposition Yposition Zposition Zrotation Xrotation Yrotation
                    End Site
                    {
                      OFFSET 2.2048 0 0
                    }
                  }
                }
              }
              JOINT lMid1
              {
                OFFSET 9.4769 0.8376 0.2947
                CHANNELS 6 Xposition Yposition Zposition Zrotation Xrotation Yrotation
                JOINT lMid2
                {
                  OFFSET 4.772 0 0
                  CHANNELS 6 Xposition Yposition Zposition Zrotation Xrotation Yrotation
                  JOINT lMid3
                  {
                    OFFSET 2.8722 0 0
                    CHANNELS 6 Xposition Yposition Zposition Zrotation Xrotation Yrotation
                    End Site
                    {
                      OFFSET 2.0959 0 0
                    }
                  }
                }
              }
              JOINT lRing1
              {
                OFFSET 8.6586 1.0176 -1.7016
                CHANNELS 6 Xposition Yposition Zposition Zrotation Xrotation Yrotation
                JOINT lRing2
                {
                  OFFSET 4.5461 0 0
                  CHANNELS 6 Xposition Yposition Zposition Zrotation Xrotation Yrotation
                  JOINT lRing3
                  {
                    OFFSET 2.506 0 0
                    CHANNELS 6 Xposition Yposition Zposition Zrotation Xrotation Yrotation
                    End Site
                    {
                      OFFSET 2.2023 0 0
                    }
                  }
                }
              }
              JOINT lPinky1
              {
                OFFSET 7.6901 0.6618 -3.9096
                CHANNELS 6 Xposition Yposition Zposition Zrotation Xrotation Yrotation
                JOINT lPinky2
                {
                  OFFSET 3.2119 0 0
                  CHANNELS 6 Xposition Yposition Zposition Zrotation Xrotation Yrotation
                  JOINT lPinky3
                  {
                    OFFSET 1.924 0 0
                    CHANNELS 6 Xposition Yposition Zposition Zrotation Xrotation Yrotation
                    End Site
                    {
                      OFFSET 1.7829 0 0
                    }
                  }
                }
              }
            }
          }
        }
      }
      JOINT rCollar
      {
        OFFSET -4.0677 26.6109 -1.1234
        CHANNELS 6 Xposition Yposition Zposition Zrotation Xrotation Yrotation
        JOINT rShldr
        {
          OFFSET -14.1772 0 0
          CHANNELS 6 Xposition Yposition Zposition Zrotation Xrotation Yrotation
          JOINT rForeArm
          {
            OFFSET -26.1234 0 0
            CHANNELS 6 Xposition Yposition Zposition Zrotation Xrotation Yrotation
            JOINT rHand
            {
              OFFSET -27.7188 0 0
              CHANNELS 6 Xposition Yposition Zposition Zrotation Xrotation Yrotation
              JOINT rThumb1
              {
                OFFSET -2.2979 -0.4684 1.8313
                CHANNELS 6 Xposition Yposition Zposition Zrotation Xrotation Yrotation
                JOINT rThumb2
                {
                  OFFSET -5.2953 0 0
                  CHANNELS 6 Xposition Yposition Zposition Zrotation Xrotation Yrotation
                  JOINT rThumb3
                  {
                    OFFSET -3.0181 0 0
                    CHANNELS 6 Xposition Yposition Zposition Zrotation Xrotation Yrotation
                    End Site
                    {
                      OFFSET -2.6294 0 0
                    }
                  }
                }
              }
              JOINT rIndex1
              {
                OFFSET -9.3793 0.2991 2.5924
                CHANNELS 6 Xposition Yposition Zposition Zrotation Xrotation Yrotation
                JOINT rIndex2
                {
                  OFFSET -4.3461 0 0
                  CHANNELS 6 Xposition Yposition Zposition Zrotation Xrotation Yrotation
                  JOINT rIndex3
                  {
                    OFFSET -2.1666 0 0
                    CHANNELS 6 Xposition Yposition Zposition Zrotation Xrotation Yrotation
                    End Site
                    {
                      OFFSET -2.2048 0 0
                    }
                  }
                }
              }
              JOINT rMid1
              {
                OFFSET -9.4769 0.8376 0.2947
                CHANNELS 6 Xposition Yposition Zposition Zrotation Xrotation Yrotation
                JOINT rMid2
                {
                  OFFSET -4.772 0 0
                  CHANNELS 6 Xposition Yposition Zposition Zrotation Xrotation Yrotation
                  JOINT rMid3
                  {
                    OFFSET -2.8722 0 0
                    CHANNELS 6 Xposition Yposition Zposition Zrotation Xrotation Yrotation
                    End Site
                    {
                      OFFSET -2.0959 0 0
                    }
                  }
                }
              }
              JOINT rRing1
              {
                OFFSET -8.6586 1.0176 -1.7016
                CHANNELS 6 Xposition Yposition Zposition Zrotation Xrotation Yrotation
                JOINT rRing2
                {
                  OFFSET -4.5461 0 0
                  CHANNELS 6 Xposition Yposition Zposition Zrotation Xrotation Yrotation
                  JOINT rRing3
                  {
                    OFFSET -2.506 0 0
                    CHANNELS 6 Xposition Yposition Zposition Zrotation Xrotation Yrotation
                    End Site
                    {
                      OFFSET -2.2023 0 0
                    }
                  }
                }
              }
              JOINT rPinky1
              {
                OFFSET -7.6901 0.6618 -3.9096
                CHANNELS 6 Xposition Yposition Zposition Zrotation Xrotation Yrotation
                JOINT rPinky2
                {
                  OFFSET -3.2119 0 0
                  CHANNELS 6 Xposition Yposition Zposition Zrotation Xrotation Yrotation
                  JOINT rPinky3
                  {
                    OFFSET -1.924 0 0
                    CHANNELS 6 Xposition Yposition Zposition Zrotation Xrotation Yrotation
                    End Site
                    {
                      OFFSET -1.7829 0 0
                    }
                  }
                }
              }
            }
          }
        }
      }
    }
  }
  JOINT lThigh
  {
    OFFSET 8.7379 -0.0029 0.0005
    CHANNELS 6 Xposition Yposition Zposition Zrotation Xrotation Yrotation
    JOINT lShin
    {
      OFFSET 0 -46.6676 0
      CHANNELS 6 Xposition Yposition Zposition Zrotation Xrotation Yrotation
      JOINT lFoot
      {
        OFFSET 0 -40.1476 0
        CHANNELS 6 Xposition Yposition Zposition Zrotation Xrotation Yrotation
        JOINT lToes
        {
          OFFSET 0 -8.8846 14.2294
          CHANNELS 6 Xposition Yposition Zposition Zrotation Xrotation Yrotation
          End Site
          {
            OFFSET 0 0 6.296
          }
        }
      }
    }
  }
  JOINT rThigh
  {
    OFFSET -8.7379 0.0029 -0.0005
    CHANNELS 6 Xposition Yposition Zposition Zrotation Xrotation Yrotation
    JOINT rShin
    {
      OFFSET 0 -46.6676 0
      CHANNELS 6 Xposition Yposition Zposition Zrotation Xrotation Yrotation
      JOINT rFoot
      {
        OFFSET 0 -40.1476 0
        CHANNELS 6 Xposition Yposition Zposition Zrotation Xrotation Yrotation
        JOINT rToes
        {
          OFFSET 0 -8.8846 14.2294
          CHANNELS 6 Xposition Yposition Zposition Zrotation Xrotation Yrotation
          End Site
          {
            OFFSET 0 0 6.296
          }
        }
      }
    }
  }
}
MOTION
Frames:	4
Frame Time:	0.0333333
-4.25222 97.1546 -0.428399 1.93202 -5.63586 2.24846 4.44089e-16 7.2397 0 -1.38757 1.36357 -1.19671 -8.88178e-16 16.546 -8.88178e-16 -2.91736 4.61208 -2.13999 1.77636e-15 34.2149 0 2.12486 25.7658 1.71652 4.44089e-16 6.2923 1.42109e-14 -3.15271 -17.8307 -2.96416 4.0639 26.6115 -1.1234 3.80323 -3.8217 0.735306 14.1772 0 -8.88178e-16 -83.769 22.4505 11.5832 26.1234 7.10543e-15 7.10543e-15 -0.430537 -1.24563 -16.5092 27.7188 0 1.77636e-15 1.67365 -28.1534 5.87264 2.2979 -0.4685 1.8313 82.93 75.1446 -95.7428 5.2953 3.55271e-15 0 -13.9265 2.44917 4.34142 3.0181 0 0 38.6949 3.94079 5.02973 9.3793 0.2991 2.5924 -10.5986 -1.89157 3.45135 4.3461 0 0 -12.8089 -0.0200221 2.64175 2.1666 -2.88658e-15 -1.11022e-16 -14.9753 -0.387094 2.56764 9.4769 0.8376 0.2947 -9.98031 -4.633 3.68201 4.772 -3.55271e-15 0 -34.4878 -2.53669 8.44889 2.8722 -3.55271e-15 1.77636e-15 -22.7419 -1.04482 7.13813 8.6586 1.0176 -1.7016 -18.2148 1.50339 4.95695 4.5461 1.77636e-15 4.44089e-16 -38.8834 -1.75306 4.96355 2.506 7.10543e-15 0 -25.9664 -0.742923 4.38889 7.6901 0.6618 -3.9096 -15.7348 -9.65463 4.82277 3.2119 -3.55271e-15 -1.77636e-15 -38.035 -4.27818 12.3699 1.924 0 0 -27.7542 -2.24688 10.8468 -4.0677 26.6109 -1.1234 4.661 -3.78593 2.16495 -14.1772 2.84217e-14 0 73.7057 0.125691 -10.748 -26.1234 0 0 0.248488 -0.847944 11.0459 -27.7188 -7.10543e-15 -1.77636e-15 -8.00753 2.11245 8.52916 -2.2979 -0.4684 1.8313 -84.581 74.4253 115.749 -5.2953 7.10543e-15 -3.55271e-15 15.3004 2.21205 -5.46139 -3.0181 1.77636e-15 -7.10543e-15 -10.6114 3.2941 -16.0189 -9.3793 0.2991 2.5924 58.8722 -7.07581 -8.64881 -4.3461 3.55271e-15 -8.88178e-16 78.8288 -8.3887 -10.5305 -2.1666 1.42109e-14 0 81.0281 -8.82224 -9.93211 -9.4769 0.8376 0.2947 58.4456 -9.84026 -8.71158 -4.772 3.55271e-15 1.77636e-15 77.7398 -10.7396 -13.4126 -2.8722 1.42109e-14 3.55271e-15 73.8658 -9.75406 -14.4177 -8.6586 1.0176 -1.7016 59.4604 -3.212 -8.59604 -4.5461 0 8.88178e-16 79.8423 -5.51923 -6.59367 -2.506 1.42109e-14 0 73.1039 -4.70674 -7.195 -7.6901 0.6618 -3.9096 57.7239 -14.4056 -8.86325 -3.2119 0 0 75.4266 -14.2018 -18.3035 -1.924 1.42109e-14 0 71.1307 -12.7786 -19.3061 8.7379 -0.0029 0.0005 2.21437 -4.1087 16.2659 -8.88178e-16 -46.6676 0 3.30586 22.0285 -1.6884 1.77636e-15 -40.1476 1.33227e-15 -3.39319 -11.72 3.17134 1.77636e-15 -8.8846 14.2294 0.0001 1.86361e-17 -9.54166e-15 -8.7379 0.0029 -0.0005 -5.3778 -3.72006 -23.4604 0 -46.6676 0 -2.92377 19.1521 5.76724 1.77636e-15 -40.1476 8.88178e-16 0.912388 -9.16266 -8.11576 3.55271e-15 -8.8846 14.2294 1.36664e-16 4.96962e-17 -6.36111e-15 
-4.26333 97.1693 -0.402538 1.88206 -5.62465 2.30446 2.22045e-16 7.2397 -1.77636e-15 -1.35744 1.35455 -1.19664 8.88178e-16 16.546 8.88178e-16 -2.88006 4.59371 -2.14089 0 34.2149 0 2.12846 25.7909 1.71739 4.44089e-16 6.2923 0 -3.19262 -17.7918 -2.97058 4.0639 26.6115 -1.1234 3.81211 -3.80076 0.735561 14.1772 2.84217e-14 0 -83.8044 22.447 11.4642 26.1234 0 0 -0.420724 -1.22657 -16.2415 27.7188 0 -4.44089e-16 1.59898 -28.1719 5.71288 2.2979 -0.4685 1.8313 82.9289 75.1437 -95.7419 5.2953 3.55271e-15 -1.77636e-15 -13.9256 2.44903 4.34109 3.0181 0 -7.10543e-15 38.6958 3.94076 5.02941 9.3793 0.2991 2.5924 -10.7412 -1.9002 3.47634 4.3461 0 0 -12.9516 -0.0266404 2.6707 2.1666 1.77636e-15 -3.33067e-16 -15.118 -0.394626 2.59565 9.4769 0.8376 0.2947 -10.1217 -4.64136 3.70716 4.772 0 -4.44089e-16 -34.6275 -2.55746 8.47909 2.8722 7.10543e-15 0 -22.8825 -1.05893 7.1717 8.6586 1.0176 -1.7016 -18.3588 1.49153 4.98057 4.5461 -3.55271e-15 0 -39.0273 -1.76557 4.97903 2.506 -1.42109e-14 0 -26.1105 -0.751665 4.40677 7.6901 0.6618 -3.9096 -15.8741 -9.66545 4.84722 3.2119 -1.77636e-15 0 -38.1699 -4.30773 12.4077 1.924 0 0 -27.8902 -2.26923 10.8892 -4.0677 26.6109 -1.1234 4.6661 -3.76612 2.16514 -14.1772 -2.84217e-14 -1.77636e-15 73.7556 0.102063 -10.6795 -26.1234 7.10543e-15 0 0.245259 -0.839915 10.9379 -27.7188 0 8.88178e-16 -7.96099 2.23998 8.59816 -2.2979 -0.4684 1.8313 -84.581 74.4253 115.749 -5.2953 -7.10543e-15 3.55271e-15 15.3004 2.21205 -5.46139 -3.0181 -1.77636e-15 0 -10.6114 3.2941 -16.0189 -9.3793 0.2991 2.5924 58.8722 -7.07581 -8.64881 -4.3461 -3.55271e-15 0 78.8288 -8.3887 -10.5305 -2.1666 -1.42109e-14 3.55271e-15 81.0281 -8.82224 -9.93211 -9.4769 0.8376 0.2947 58.4456 -9.84026 -8.71158 -4.772 0 0 77.7398 -10.7396 -13.4126 -2.8722 0 3.55271e-15 73.8658 -9.75406 -14.4177 -8.6586 1.0176 -1.7016 59.4604 -3.212 -8.59604 -4.5461 0 8.88178e-16 79.8423 -5.51923 -6.59367 -2.506 1.42109e-14 0 73.1039 -4.70674 -7.195 -7.6901 0.6618 -3.9096 57.7239 -14.4056 -8.86325 -3.2119 3.55271e-15 0 75.4266 -14.2018 -18.3035 -1.924 1.42109e-14 0 71.1307 -12.7786 -19.3061 8.7379 -0.0029 0.0005 2.29445 -4.09972 16.2432 -8.88178e-16 -46.6676 3.55271e-15 3.25937 22.0098 -1.54979 -1.77636e-15 -40.1476 -4.44089e-16 -3.40659 -11.7037 3.00242 0 -8.8846 14.2294 0.0001 3.10601e-17 -0 -8.7379 0.0029 -0.0005 -5.28944 -3.60055 -23.4798 0 -46.6676 0 -2.86834 18.9397 5.70369 0 -40.1476 8.88178e-16 0.901099 -9.0842 -8.11827 0 -8.8846 14.2294 -2.48481e-17 0 6.36111e-15 
-4.27636 97.1805 -0.38075 1.81561 -5.61825 2.35875 -2.22045e-16 7.2397 0 -1.32192 1.3427 -1.1983 0 16.546 0 -2.83738 4.56966 -2.14518 1.77636e-15 34.2149 4.44089e-16 2.13214 25.8114 1.71788 -4.44089e-16 6.2923 1.42109e-14 -3.22418 -17.7577 -2.95404 4.0639 26.6115 -1.1234 3.82188 -3.78072 0.734921 14.1772 2.84217e-14 8.88178e-16 -83.831 22.463 11.3967 26.1234 0 0 -0.415477 -1.21626 -16.0969 27.7188 7.10543e-15 -8.88178e-16 1.57069 -28.1933 5.64399 2.2979 -0.4685 1.8313 82.9277 75.1428 -95.741 5.2953 0 0 -13.9247 2.4489 4.34074 3.0181 0 0 38.6966 3.9407 5.02905 9.3793 0.2991 2.5924 -10.8805 -1.90869 3.50074 4.3461 7.10543e-15 -8.88178e-16 -13.0911 -0.0331856 2.69899 2.1666 -2.22045e-15 -2.22045e-16 -15.2575 -0.402051 2.62302 9.4769 0.8376 0.2947 -10.2598 -4.64958 3.73172 4.772 0 0 -34.7642 -2.57785 8.50856 2.8722 -7.10543e-15 0 -23.0199 -1.07282 7.20448 8.6586 1.0176 -1.7016 -18.4996 1.47988 5.00363 4.5461 4.44089e-15 0 -39.168 -1.77785 4.99414 2.506 7.10543e-15 -1.77636e-15 -26.2515 -0.76025 4.42424 7.6901 0.6618 -3.9096 -16.0102 -9.67609 4.87109 3.2119 -1.77636e-15 -8.88178e-16 -38.3017 -4.3367 12.4446 1.924 0 3.55271e-15 -28.0231 -2.29117 10.9306 -4.0677 26.6109 -1.1234 4.68055 -3.74399 2.1646 -14.1772 -5.68434e-14 -8.88178e-16 73.7928 0.0627988 -10.6245 -26.1234 0 -3.55271e-15 0.243033 -0.834294 10.8624 -27.7188 -7.10543e-15 -1.77636e-15 -7.90683 2.38278 8.63278 -2.2979 -0.4684 1.8313 -84.581 74.4253 115.749 -5.2953 -7.10543e-15 0 15.3004 2.21205 -5.46139 -3.0181 0 -7.10543e-15 -10.6114 3.2941 -16.0189 -9.3793 0.2991 2.5924 58.8722 -7.07581 -8.64881 -4.3461 -3.55271e-15 0 78.8288 -8.3887 -10.5305 -2.1666 1.42109e-14 0 81.0281 -8.82224 -9.93211 -9.4769 0.8376 0.2947 58.4456 -9.84026 -8.71158 -4.772 3.55271e-15 0 77.7398 -10.7396 -13.4126 -2.8722 0 0 73.8658 -9.75406 -14.4177 -8.6586 1.0176 -1.7016 59.4604 -3.212 -8.59604 -4.5461 7.10543e-15 0 79.8423 -5.51923 -6.59367 -2.506 1.42109e-14 3.55271e-15 73.1039 -4.70674 -7.195 -7.6901 0.6618 -3.9096 57.7239 -14.4056 -8.86325 -3.2119 -3.55271e-15 0 75.4266 -14.2018 -18.3035 -1.924 0 0 71.1307 -12.7786 -19.3061 8.7379 -0.0029 0.0005 2.39138 -4.10403 16.2167 0 -46.6676 3.55271e-15 3.21982 22.0286 -1.42351 0 -40.1476 -6.66134e-16 -3.42349 -11.7087 2.84534 -1.77636e-15 -8.8846 14.2294 0.0001 2.48481e-17 -6.36111e-15 -8.7379 0.0029 -0.0005 -5.19111 -3.50072 -23.4895 0 -46.6676 -3.55271e-15 -2.81253 18.723 5.63562 3.55271e-15 -40.1476 0 0.886238 -8.97536 -8.12149 0 -8.8846 14.2294 -2.23633e-16 0 -0 
-4.28678 97.1924 -0.357321 1.75494 -5.61145 2.42273 2.22045e-16 7.2397 0 -1.28777 1.33576 -1.20255 4.44089e-16 16.546 -8.88178e-16 -2.79675 4.55551 -2.15442 -1.77636e-15 34.2149 -4.44089e-16 2.13592 25.8239 1.71823 0 6.2923 -1.42109e-14 -3.24328 -17.7216 -2.91199 4.0639 26.6115 -1.1234 3.83246 -3.76203 0.733562 14.1772 0 -8.88178e-16 -83.8545 22.478 11.314 26.1234 7.10543e-15 -7.10543e-15 -0.40996 -1.20539 -15.9448 27.7188 -7.10543e-15 -1.77636e-15 1.53661 -28.2093 5.56123 2.2979 -0.4685 1.8313 82.9268 75.1419 -95.7402 5.2953 -3.55271e-15 -1.77636e-15 -13.9238 2.44877 4.34044 3.0181 0 0 38.6975 3.94063 5.0287 9.3793 0.2991 2.5924 -11.0152 -1.91695 3.52431 4.3461 0 8.88178e-16 -13.226 -0.0395756 2.72632 2.1666 -1.77636e-15 5.55112e-16 -15.3923 -0.409301 2.64947 9.4769 0.8376 0.2947 -10.3934 -4.65759 3.75545 4.772 -3.55271e-15 -4.44089e-16 -34.8963 -2.59762 8.53701 2.8722 7.10543e-15 0 -23.1527 -1.0863 7.23613 8.6586 1.0176 -1.7016 -18.6356 1.46857 5.02589 4.5461 8.88178e-16 4.44089e-16 -39.304 -1.78974 5.00872 2.506 -7.10543e-15 1.77636e-15 -26.3877 -0.768588 4.4411 7.6901 0.6618 -3.9096 -16.1418 -9.68643 4.89414 3.2119 -1.77636e-15 0 -38.4291 -4.36478 12.4802 1.924 7.10543e-15 7.10543e-15 -28.1516 -2.31246 10.9705 -4.0677 26.6109 -1.1234 4.69822 -3.72447 2.16342 -14.1772 2.84217e-14 -8.88178e-16 73.8223 0.0100621 -10.5547 -26.1234 0 0 0.239687 -0.825971 10.7505 -27.7188 0 8.88178e-16 -7.8579 2.51503 8.69249 -2.2979 -0.4684 1.8313 -84.581 74.4253 115.749 -5.2953 -7.10543e-15 0 15.3004 2.21205 -5.46139 -3.0181 3.55271e-15 0 -10.6114 3.2941 -16.0189 -9.3793 0.2991 2.5924 58.8722 -7.07581 -8.64881 -4.3461 0 -4.44089e-16 78.8288 -8.3887 -10.5305 -2.1666 0 0 81.0281 -8.82224 -9.93211 -9.4769 0.8376 0.2947 58.4456 -9.84026 -8.71158 -4.772 3.55271e-15 0 77.7398 -10.7396 -13.4126 -2.8722 0 0 73.8658 -9.75406 -14.4177 -8.6586 1.0176 -1.7016 59.4604 -3.212 -8.59604 -4.5461 0 0 79.8423 -5.51923 -6.59367 -2.506 -1.42109e-14 1.77636e-15 73.1039 -4.70674 -7.195 -7.6901 0.6618 -3.9096 57.7239 -14.4056 -8.86325 -3.2119 3.55271e-15 -1.77636e-15 75.4266 -14.2018 -18.3035 -1.924 0 0 71.1307 -12.7786 -19.3061 8.7379 -0.0029 0.0005 2.47783 -4.10405 16.1873 8.88178e-16 -46.6676 -3.55271e-15 3.17328 22.0394 -1.27485 -1.77636e-15 -40.1476 -1.33227e-15 -3.43655 -11.7106 2.66331 -3.55271e-15 -8.8846 14.2294 0.0001 -1.2424e-17 -3.18055e-15 -8.7379 0.0029 -0.0005 -5.11148 -3.38389 -23.5147 0 -46.6676 0 -2.75524 18.5032 5.55573 -1.77636e-15 -40.1476 4.44089e-16 0.886218 -8.87295 -8.12224 -3.55271e-15 -8.8846 14.2294 -1.36664e-16 0 -0 
